<svg width="35" height="35" viewBox="0 0 35 35" fill="none" xmlns="http://www.w3.org/2000/svg">
<path d="M26.2508 16.0417C26.2508 14.6431 25.2591 13.4735 23.9452 13.1921C24.4702 12.3156 24.7925 11.3021 24.7925 10.2083C24.7925 6.99125 22.1762 4.375 18.9591 4.375C16.7469 4.375 14.8452 5.62479 13.855 7.44333C12.8648 5.62479 10.9631 4.375 8.75081 4.375C5.53373 4.375 2.91748 6.99125 2.91748 10.2083C2.91748 11.5238 3.37248 12.7269 4.10894 13.7025C3.74084 13.9717 3.4412 14.3236 3.23423 14.73C3.02726 15.1363 2.91875 15.5857 2.91748 16.0417V27.7083C2.91748 29.3169 4.22561 30.625 5.83415 30.625H23.3341C24.9427 30.625 26.2508 29.3169 26.2508 27.7083V23.8612L32.0841 26.7779V16.5696L26.2508 19.4863V16.0417ZM18.9591 7.29167C20.5677 7.29167 21.8758 8.59979 21.8758 10.2083C21.8758 11.8169 20.5677 13.125 18.9591 13.125C17.3506 13.125 16.0425 11.8169 16.0425 10.2083C16.0425 8.59979 17.3506 7.29167 18.9591 7.29167ZM8.75081 7.29167C10.3594 7.29167 11.6675 8.59979 11.6675 10.2083C11.6675 11.8169 10.3594 13.125 8.75081 13.125C7.14227 13.125 5.83415 11.8169 5.83415 10.2083C5.83415 8.59979 7.14227 7.29167 8.75081 7.29167ZM5.83415 27.7083V16.0417H23.3341L23.3371 27.7083H5.83415Z" fill="white"/>
</svg>
