<svg width="30" height="29" viewBox="0 0 30 29" fill="none" xmlns="http://www.w3.org/2000/svg">
<path d="M15.0018 22.8431L15.5183 23.1555L22.793 27.5554L22.7933 27.5556C23.3648 27.9015 24.0646 27.3944 23.9134 26.7444L21.9853 18.4709L21.8483 17.8833L22.3043 17.4882L28.7377 11.9138L28.738 11.9135C29.246 11.4737 28.9665 10.6506 28.314 10.5987L28.3088 10.5983L28.3088 10.5983L19.842 9.87954L19.2411 9.82853L19.0058 9.2733L15.6927 1.4551L15.6914 1.45196C15.4384 0.849346 14.563 0.849346 14.3101 1.45196L14.3084 1.45585L14.3084 1.45584L10.9953 9.25651L10.7598 9.81105L10.1595 9.86201L1.6927 10.5807L1.68742 10.5812L1.68742 10.5812C1.03499 10.6331 0.755491 11.4562 1.26344 11.8959L1.26379 11.8962L7.69715 17.4706L8.15314 17.8658L8.0162 18.4534L6.08805 26.7269L15.0018 22.8431ZM15.0018 22.8431L14.4847 23.1546M15.0018 22.8431L14.4847 23.1546M14.4847 23.1546L7.20994 27.537L7.20815 27.5381M14.4847 23.1546L7.20815 27.5381M7.20815 27.5381C6.63679 27.8839 5.93721 27.3771 6.08794 26.7273L7.20815 27.5381ZM22.9592 18.2439L29.3925 12.6695L22.9592 18.2439Z" stroke="white" stroke-width="2"/>
</svg>
