<svg width="50" height="40" viewBox="0 0 25 20" fill="none" xmlns="http://www.w3.org/2000/svg">
<path d="M0 10.0004L9.41395 19.4143C9.59964 19.6 9.82009 19.7473 10.0627 19.8478C10.3053 19.9483 10.5653 20 10.8279 20C11.0905 20 11.3506 19.9483 11.5932 19.8478C11.8358 19.7473 12.0563 19.6 12.2419 19.4143C12.4276 19.2286 12.5749 19.0082 12.6754 18.7656C12.7759 18.5229 12.8276 18.2629 12.8276 18.0003C12.8276 17.7377 12.7759 17.4777 12.6754 17.2351C12.5749 16.9925 12.4276 16.772 12.2419 16.5863L7.65596 12.0003L22.8279 12.0003C23.3583 12.0003 23.867 11.7896 24.2421 11.4146C24.6172 11.0395 24.8279 10.5308 24.8279 10.0004C24.8279 9.46992 24.6172 8.96122 24.2421 8.58614C23.867 8.21107 23.3583 8.00036 22.8279 8.00036L7.65596 8.00036L12.2419 3.41438C12.4283 3.22908 12.5762 3.00876 12.6771 2.76609C12.7781 2.52343 12.83 2.2632 12.83 2.00039C12.83 1.73758 12.7781 1.47735 12.6771 1.23469C12.5762 0.992023 12.4283 0.771702 12.2419 0.586395C12.0564 0.400505 11.836 0.253033 11.5933 0.152411C11.3507 0.0517902 11.0906 0 10.8279 0C10.5653 0 10.3052 0.0517902 10.0626 0.152411C9.81993 0.253033 9.59953 0.400505 9.41395 0.586395L0 10.0004Z" fill="#EA7701"/>
</svg>
