<svg width="50" height="40" viewBox="0 0 25 20" fill="none" xmlns="http://www.w3.org/2000/svg">
<path d="M25 9.99965L15.586 0.585696C15.4004 0.400008 15.1799 0.252711 14.9373 0.152217C14.6947 0.0517234 14.4347 1.95654e-09 14.1721 0C13.9095 -1.95655e-09 13.6494 0.0517234 13.4068 0.152217C13.1642 0.252711 12.9437 0.400008 12.7581 0.585696C12.5724 0.771384 12.4251 0.991828 12.3246 1.23444C12.2241 1.47705 12.1724 1.73709 12.1724 1.99969C12.1724 2.26229 12.2241 2.52232 12.3246 2.76494C12.4251 3.00755 12.5724 3.22799 12.7581 3.41368L17.344 7.99966L2.17212 7.99966C1.64169 7.99966 1.13298 8.21037 0.757908 8.58544C0.382835 8.96051 0.172125 9.46922 0.172125 9.99965C0.172125 10.5301 0.382835 11.0388 0.757908 11.4139C1.13298 11.7889 1.64169 11.9996 2.17212 11.9996L17.344 11.9996L12.7581 16.5856C12.5717 16.7709 12.4238 16.9912 12.3229 17.2339C12.2219 17.4766 12.17 17.7368 12.17 17.9996C12.17 18.2624 12.2219 18.5226 12.3229 18.7653C12.4238 19.008 12.5717 19.2283 12.7581 19.4136C12.9436 19.5995 13.164 19.747 13.4067 19.8476C13.6493 19.9482 13.9094 20 14.1721 20C14.4347 20 14.6948 19.9482 14.9374 19.8476C15.1801 19.747 15.4005 19.5995 15.586 19.4136L25 9.99965Z" fill="#EA7701"/>
</svg>
