<svg width="35" height="40" viewBox="0 0 23 26" fill="none" xmlns="http://www.w3.org/2000/svg">
<path d="M3.00073 0.75C2.404 0.75 1.8317 0.987053 1.40974 1.40901C0.987785 1.83097 0.750732 2.40326 0.750732 3V21C0.750732 21.5967 0.987785 22.169 1.40974 22.591C1.8317 23.0129 2.404 23.25 3.00073 23.25H8.83573C7.9547 21.8975 7.48979 20.3162 7.49861 18.702C7.50742 17.0879 7.98957 15.5117 8.88533 14.1689C9.78108 12.8261 11.0511 11.7755 12.538 11.1474C14.025 10.5192 15.6635 10.3411 17.2507 10.635V3C17.2507 2.40326 17.0137 1.83097 16.5917 1.40901C16.1698 0.987053 15.5975 0.75 15.0007 0.75H3.00073ZM6.00073 12C6.00073 12.3978 5.8427 12.7794 5.56139 13.0607C5.28009 13.342 4.89856 13.5 4.50073 13.5C4.10291 13.5 3.72138 13.342 3.44007 13.0607C3.15877 12.7794 3.00073 12.3978 3.00073 12C3.00073 11.6022 3.15877 11.2206 3.44007 10.9393C3.72138 10.658 4.10291 10.5 4.50073 10.5C4.89856 10.5 5.28009 10.658 5.56139 10.9393C5.8427 11.2206 6.00073 11.6022 6.00073 12ZM22.5007 18.75C22.5007 20.5402 21.7896 22.2571 20.5237 23.523C19.2578 24.7888 17.5409 25.5 15.7507 25.5C13.9605 25.5 12.2436 24.7888 10.9778 23.523C9.71189 22.2571 9.00073 20.5402 9.00073 18.75C9.00073 16.9598 9.71189 15.2429 10.9778 13.977C12.2436 12.7112 13.9605 12 15.7507 12C17.5409 12 19.2578 12.7112 20.5237 13.977C21.7896 15.2429 22.5007 16.9598 22.5007 18.75ZM12.2212 18.219L12.2167 18.2235C12.0793 18.3626 12.0018 18.55 12.0007 18.7455V18.7545C12.002 18.9515 12.0806 19.14 12.2197 19.2795L15.2197 22.2795C15.2894 22.3492 15.3721 22.4046 15.4631 22.4423C15.5541 22.4801 15.6517 22.4996 15.7502 22.4997C15.8487 22.4997 15.9463 22.4804 16.0374 22.4427C16.1285 22.4051 16.2113 22.3499 16.281 22.2803C16.3507 22.2106 16.406 22.1279 16.4438 22.0369C16.4816 21.9459 16.5011 21.8483 16.5012 21.7498C16.5012 21.6512 16.4819 21.5536 16.4442 21.4626C16.4066 21.3715 16.3514 21.2887 16.2817 21.219L14.5612 19.5H18.7507C18.9496 19.5 19.1404 19.421 19.2811 19.2803C19.4217 19.1397 19.5007 18.9489 19.5007 18.75C19.5007 18.5511 19.4217 18.3603 19.2811 18.2197C19.1404 18.079 18.9496 18 18.7507 18H14.5612L16.2817 16.281C16.4226 16.1402 16.5017 15.9492 16.5017 15.75C16.5017 15.5508 16.4226 15.3598 16.2817 15.219C16.1409 15.0782 15.9499 14.9991 15.7507 14.9991C15.5516 14.9991 15.3606 15.0782 15.2197 15.219L12.2197 18.219H12.2212Z" fill="white"/>
</svg>
