<svg width="36" height="40" viewBox="0 0 27 32" fill="none" xmlns="http://www.w3.org/2000/svg">
<path d="M3.38428 13.6923L5.29964 28.969C5.36766 29.5319 5.64051 30.05 6.06613 30.4246C6.49175 30.7991 7.04036 31.0039 7.60731 30.9998H19.6764C20.2434 31.0039 20.792 30.7991 21.2176 30.4246C21.6432 30.05 21.9161 29.5319 21.9841 28.969L23.8764 13.6923" stroke="white" stroke-linecap="round" stroke-linejoin="round"/>
<path d="M22.8608 6.93096C22.5802 6.93538 22.3012 6.97413 22.0301 7.04635C22.2409 6.54185 22.3507 6.00085 22.3531 5.45406C22.311 4.25018 21.7999 3.11047 20.929 2.27831C20.058 1.44614 18.8962 0.987478 17.6917 1.00026C16.8567 1.00249 16.038 1.23117 15.3228 1.66193C14.6076 2.0927 14.0226 2.70942 13.6302 3.44639C13.2377 2.70942 12.6528 2.0927 11.9375 1.66193C11.2223 1.23117 10.4036 1.00249 9.56866 1.00026C8.37208 0.999527 7.22198 1.46355 6.36094 2.29446C5.49989 3.12537 4.99521 4.25821 4.95333 5.45406C4.95576 6.00085 5.06553 6.54185 5.2764 7.04635C4.99028 6.9703 4.69554 6.93151 4.39949 6.93096C3.48144 6.93096 2.601 7.29566 1.95184 7.94481C1.30268 8.59397 0.937988 9.47442 0.937988 10.3925C0.937988 11.3105 1.30268 12.191 1.95184 12.8401C2.601 13.4893 3.48144 13.854 4.39949 13.854C4.9276 13.8549 5.44945 13.7396 5.92802 13.5162C6.40658 13.2929 6.83015 12.967 7.16869 12.5617C7.41935 13.2405 7.87254 13.8259 8.46691 14.2387C9.06127 14.6514 9.76811 14.8716 10.4917 14.8693C11.1209 14.8824 11.7423 14.7293 12.2934 14.4254C12.8444 14.1215 13.3055 13.6776 13.6302 13.1386C13.9496 13.6598 14.3974 14.0905 14.9307 14.3894C15.4639 14.6884 16.0649 14.8457 16.6763 14.8463C17.3999 14.8485 18.1067 14.6283 18.7011 14.2156C19.2955 13.8028 19.7487 13.2174 19.9993 12.5386C20.3379 12.9439 20.7614 13.2698 21.24 13.4932C21.7186 13.7165 22.2404 13.8318 22.7685 13.8309C23.6866 13.8309 24.567 13.4662 25.2162 12.817C25.8653 12.1679 26.23 11.2874 26.23 10.3694C26.23 9.45134 25.8653 8.57089 25.2162 7.92174C24.567 7.27258 23.6866 6.90789 22.7685 6.90789L22.8608 6.93096Z" stroke="white" stroke-linecap="round" stroke-linejoin="round"/>
<path d="M7.15538 2L10.5467 1L13.628 3V31H11.3945H7.7206L5.43799 30L3.43799 14L0.937988 11.5V9L2.93799 7.5L4.89451 7L5.43799 3.5L7.15538 2Z" fill="#EA7701"/>
<path d="M3.38428 13.6923L5.29964 28.969C5.36766 29.5319 5.64051 30.05 6.06613 30.4246C6.49175 30.7991 7.04036 31.0039 7.60731 30.9998H13.6419" stroke="white" stroke-linecap="round" stroke-linejoin="round"/>
<path d="M13.6302 3.44639C13.2377 2.70942 12.6528 2.0927 11.9375 1.66193C11.2223 1.23117 10.4036 1.00249 9.56866 1.00026C8.37208 0.999527 7.22198 1.46355 6.36094 2.29446C5.49989 3.12537 4.99521 4.25821 4.95333 5.45406C4.95576 6.00085 5.06553 6.54185 5.2764 7.04635C4.99028 6.9703 4.69554 6.93151 4.39949 6.93096C3.48144 6.93096 2.601 7.29566 1.95184 7.94481C1.30268 8.59397 0.937988 9.47442 0.937988 10.3925C0.937988 11.3105 1.30268 12.191 1.95184 12.8401C2.601 13.4893 3.48144 13.854 4.39949 13.854C4.9276 13.8549 5.44945 13.7396 5.92802 13.5162C6.40658 13.2929 6.83015 12.967 7.16869 12.5617C7.41935 13.2405 7.87254 13.8259 8.46691 14.2387C9.06127 14.6514 9.76811 14.8716 10.4917 14.8693C11.1209 14.8824 11.7423 14.7293 12.2934 14.4254C12.8444 14.1215 13.3055 13.6776 13.6302 13.1386" stroke="white" stroke-linecap="round" stroke-linejoin="round"/>
</svg>
