<svg width="28" height="31" viewBox="0 0 28 31" fill="none" xmlns="http://www.w3.org/2000/svg">
<path d="M3.71631 13.1923L5.63167 28.469C5.69969 29.0319 5.97254 29.55 6.39816 29.9246C6.82379 30.2991 7.3724 30.5039 7.93934 30.4998H20.0084C20.5754 30.5039 21.124 30.2991 21.5496 29.9246C21.9752 29.55 22.2481 29.0319 22.3161 28.469L24.2084 13.1923" stroke="white" stroke-linecap="round" stroke-linejoin="round"/>
<path d="M23.1929 6.43096C22.9123 6.43538 22.6333 6.47413 22.3621 6.54635C22.573 6.04185 22.6827 5.50085 22.6852 4.95406C22.6431 3.75018 22.132 2.61047 21.261 1.77831C20.39 0.946143 19.2282 0.487478 18.0237 0.50026C17.1888 0.502488 16.3701 0.731165 15.6548 1.16193C14.9396 1.5927 14.3546 2.20942 13.9622 2.94639C13.5698 2.20942 12.9848 1.5927 12.2696 1.16193C11.5543 0.731165 10.7356 0.502488 9.90069 0.50026C8.70411 0.499527 7.55402 0.963548 6.69297 1.79446C5.83192 2.62537 5.32724 3.75821 5.28536 4.95406C5.28779 5.50085 5.39756 6.04185 5.60843 6.54635C5.32232 6.47029 5.02757 6.43151 4.73152 6.43096C3.81347 6.43096 2.93303 6.79566 2.28387 7.44481C1.63471 8.09397 1.27002 8.97442 1.27002 9.89246C1.27002 10.8105 1.63471 11.691 2.28387 12.3401C2.93303 12.9893 3.81347 13.354 4.73152 13.354C5.25963 13.3549 5.78148 13.2396 6.26005 13.0162C6.73862 12.7929 7.16219 12.467 7.50072 12.0617C7.75139 12.7405 8.20457 13.3259 8.79894 13.7387C9.3933 14.1514 10.1001 14.3716 10.8238 14.3693C11.4529 14.3824 12.0744 14.2293 12.6254 13.9254C13.1764 13.6215 13.6375 13.1776 13.9622 12.6386C14.2817 13.1598 14.7294 13.5905 15.2627 13.8894C15.796 14.1884 16.397 14.3457 17.0083 14.3463C17.7319 14.3485 18.4388 14.1283 19.0331 13.7156C19.6275 13.3028 20.0807 12.7174 20.3314 12.0386C20.6699 12.4439 21.0935 12.7698 21.572 12.9932C22.0506 13.2165 22.5724 13.3318 23.1006 13.3309C24.0186 13.3309 24.899 12.9662 25.5482 12.317C26.1974 11.6679 26.5621 10.7874 26.5621 9.86939C26.5621 8.95134 26.1974 8.0709 25.5482 7.42174C24.899 6.77258 24.0186 6.40789 23.1006 6.40789L23.1929 6.43096Z" fill="white" stroke="white" stroke-linecap="round" stroke-linejoin="round"/>
</svg>
