<svg width="36" height="40" viewBox="0 0 27 32" fill="none" xmlns="http://www.w3.org/2000/svg">
<path d="M3.21631 13.6923L5.13167 28.969C5.19969 29.5319 5.47254 30.05 5.89816 30.4246C6.32379 30.7991 6.8724 31.0039 7.43934 30.9998H19.5084C20.0754 31.0039 20.624 30.7991 21.0496 30.4246C21.4752 30.05 21.7481 29.5319 21.8161 28.969L23.7084 13.6923" fill="#EA7701"/>
<path d="M3.21631 13.6923L5.13167 28.969C5.19969 29.5319 5.47254 30.05 5.89816 30.4246C6.32379 30.7991 6.8724 31.0039 7.43934 30.9998H19.5084C20.0754 31.0039 20.624 30.7991 21.0496 30.4246C21.4752 30.05 21.7481 29.5319 21.8161 28.969L23.7084 13.6923" stroke="white" stroke-linecap="round" stroke-linejoin="round"/>
<path d="M22.6929 6.93096C22.4123 6.93538 22.1333 6.97413 21.8621 7.04635C22.073 6.54185 22.1827 6.00085 22.1852 5.45406C22.1431 4.25018 21.632 3.11047 20.761 2.27831C19.89 1.44614 18.7282 0.987478 17.5237 1.00026C16.6888 1.00249 15.8701 1.23117 15.1548 1.66193C14.4396 2.0927 13.8546 2.70942 13.4622 3.44639C13.0698 2.70942 12.4848 2.0927 11.7696 1.66193C11.0543 1.23117 10.2356 1.00249 9.40069 1.00026C8.20411 0.999527 7.05402 1.46355 6.19297 2.29446C5.33192 3.12537 4.82724 4.25821 4.78536 5.45406C4.78779 6.00085 4.89756 6.54185 5.10843 7.04635C4.82232 6.97029 4.52757 6.93151 4.23152 6.93096C3.31347 6.93096 2.43303 7.29566 1.78387 7.94481C1.13471 8.59397 0.77002 9.47442 0.77002 10.3925C0.77002 11.3105 1.13471 12.191 1.78387 12.8401C2.43303 13.4893 3.31347 13.854 4.23152 13.854C4.75963 13.8549 5.28148 13.7396 5.76005 13.5162C6.23862 13.2929 6.66219 12.967 7.00072 12.5617C7.25139 13.2405 7.70457 13.8259 8.29894 14.2387C8.8933 14.6514 9.60014 14.8716 10.3238 14.8693C10.9529 14.8824 11.5744 14.7293 12.1254 14.4254C12.6764 14.1215 13.1375 13.6776 13.4622 13.1386C13.7817 13.6598 14.2294 14.0905 14.7627 14.3894C15.296 14.6884 15.897 14.8457 16.5083 14.8463C17.2319 14.8485 17.9388 14.6283 18.5331 14.2156C19.1275 13.8028 19.5807 13.2174 19.8314 12.5386C20.1699 12.9439 20.5935 13.2698 21.072 13.4932C21.5506 13.7165 22.0724 13.8318 22.6006 13.8309C23.5186 13.8309 24.399 13.4662 25.0482 12.817C25.6974 12.1679 26.0621 11.2874 26.0621 10.3694C26.0621 9.45134 25.6974 8.5709 25.0482 7.92174C24.399 7.27258 23.5186 6.90789 22.6006 6.90789L22.6929 6.93096Z" fill="#EA7701" stroke="white" stroke-linecap="round" stroke-linejoin="round"/>
</svg>
