<svg width="40" height="40" viewBox="0 0 20 20" fill="none" xmlns="http://www.w3.org/2000/svg">
<path d="M10.5175 15.1518L10.001 14.8394L9.48399 15.1509L4.63413 18.0725L4.63234 18.0735C4.5869 18.101 4.55622 18.1034 4.53584 18.1021C4.51009 18.1004 4.47807 18.0903 4.44697 18.0677C4.41582 18.0451 4.3959 18.0173 4.38603 17.9926C4.37815 17.9729 4.37135 17.9434 4.38277 17.8939C4.38278 17.8938 4.38279 17.8938 4.3828 17.8938C4.38283 17.8937 4.38285 17.8935 4.38288 17.8934L5.66828 12.3779L5.80522 11.7903L5.34923 11.3952L1.06032 7.6789L1.05997 7.6786C1.02129 7.64512 1.00958 7.61731 1.00441 7.59678C0.997923 7.57097 0.997698 7.53628 1.00992 7.49881C1.02216 7.46132 1.04261 7.43403 1.0622 7.41778C1.07754 7.40504 1.1019 7.39029 1.15089 7.38639L1.15089 7.3864L1.15618 7.38595L6.8007 6.90681L7.40102 6.85585L7.63655 6.30132L9.84528 1.10087L9.84528 1.10087L9.84692 1.09699C9.86488 1.05418 9.88549 1.03618 9.90288 1.0253C9.92506 1.01143 9.95876 1 10 1C10.0412 1 10.0749 1.01143 10.0971 1.0253C10.1145 1.03618 10.1351 1.05418 10.1531 1.09699L10.1544 1.10013L12.3631 6.31226L12.5984 6.86749L13.1993 6.9185L18.8438 7.39766L18.8491 7.39808C18.8981 7.40197 18.9225 7.41673 18.9378 7.42946C18.9574 7.44572 18.9778 7.473 18.9901 7.5105C19.0023 7.54797 19.0021 7.58266 18.9956 7.60847C18.9904 7.62899 18.9787 7.6568 18.94 7.69028L18.9397 7.69059L14.6508 11.4069L14.1948 11.802L14.3317 12.3896L15.6171 17.9051C15.6287 17.9549 15.6219 17.9845 15.614 18.0043C15.6041 18.029 15.5842 18.0567 15.553 18.0794C15.5219 18.102 15.4899 18.1121 15.4642 18.1138C15.4438 18.1151 15.4131 18.1127 15.3677 18.0852L15.3674 18.0851L10.5175 15.1518Z" stroke="white" stroke-width="2"/>
</svg>
